<!DOCTYPE svg PUBLIC "-//W3C//DTD SVG 1.1//EN" "http://www.w3.org/Graphics/SVG/1.1/DTD/svg11.dtd">
<!-- Uploaded to: SVG Repo, www.svgrepo.com, Transformed by: SVG Repo Mixer Tools -->
<svg height="800px" width="800px" version="1.1" id="Layer_1" xmlns="http://www.w3.org/2000/svg" xmlns:xlink="http://www.w3.org/1999/xlink" viewBox="0 0 447.998 447.998" xml:space="preserve" fill="#000000">
<g id="SVGRepo_bgCarrier" stroke-width="0"/>
<g id="SVGRepo_tracerCarrier" stroke-linecap="round" stroke-linejoin="round"/>
<g id="SVGRepo_iconCarrier"> <g transform="translate(0 -1020.36)" shape-rendering="auto" image-rendering="auto" color-rendering="auto" color-interpolation="sRGB"> <path style="fill:#EE746C;" d="M43.519,1096.325v15.945h369.228v-15.945H43.519L43.519,1096.325z"/> <path style="fill:#5A3392;" d="M224.051,1120.333c-17.579,0-32.008,14.43-32.008,32.008c0,17.58,14.429,32.008,32.008,32.008 c17.578,0,31.89-14.43,31.89-32.008S241.63,1120.333,224.051,1120.333z"/> <path style="fill:#29A3EC;" d="M224.051,1136.278c8.931,0,15.945,7.131,15.945,16.063s-7.014,15.945-15.945,15.945 c-8.932,0-16.063-7.014-16.063-15.945S215.12,1136.278,224.051,1136.278z"/> <g> <path style="fill:#5A3392;" d="M311.791,1088.325v15.945h100.173v-15.945H311.791z"/> <path style="fill:#5A3392;" d="M7.876,1072.29c-4.418,0.068-7.944,3.707-7.875,8.125l0,0v31.783 c-0.066,4.418,3.462,8.053,7.88,8.119s8.054-3.461,8.12-7.879c0.001-0.08,0.001-0.16,0-0.24v-31.783 c0.069-4.418-3.456-8.057-7.875-8.125C8.043,1072.288,7.959,1072.288,7.876,1072.29z"/> <path style="fill:#5A3392;" d="M39.876,1040.29c-4.418,0.068-7.944,3.706-7.875,8.125h0v95.783 c-0.054,4.418,3.484,8.045,7.902,8.098c4.418,0.055,8.044-3.484,8.098-7.902c0.001-0.064,0.001-0.131,0-0.195v-95.783 c0.069-4.418-3.456-8.056-7.875-8.125C40.043,1040.289,39.959,1040.289,39.876,1040.29z"/> <path style="fill:#5A3392;" d="M440.122,1072.29c4.418,0.068,7.944,3.707,7.875,8.125l0,0v31.783 c0.066,4.418-3.462,8.053-7.881,8.119c-4.418,0.066-8.053-3.463-8.119-7.881c-0.001-0.08-0.001-0.158,0-0.238v-31.783 c-0.069-4.418,3.456-8.057,7.875-8.125C439.955,1072.288,440.038,1072.288,440.122,1072.29z"/> <path style="fill:#5A3392;" d="M408.122,1040.29c4.418,0.068,7.944,3.706,7.875,8.125l0,0v95.783 c0.054,4.418-3.484,8.045-7.902,8.098c-4.418,0.055-8.044-3.482-8.098-7.902c-0.001-0.064-0.001-0.131,0-0.195v-95.783 c-0.069-4.418,3.456-8.056,7.875-8.125C407.955,1040.289,408.038,1040.289,408.122,1040.29z"/> <path style="fill:#5A3392;" d="M110.901,1092.224c-4.374,0.625-7.413,4.678-6.788,9.053c0.042,0.293,0.1,0.582,0.174,0.869 l15.945,68.031c0.325,1.475,1.061,2.826,2.123,3.9l46.299,46.299l47.481,221.574c0.842,4.338,5.041,7.172,9.379,6.33 c3.203-0.623,5.708-3.127,6.329-6.33l47.481-221.574l46.299-46.299c1.064-1.072,1.802-2.426,2.129-3.9l16.063-68.031 c1.053-4.295-1.576-8.631-5.871-9.684c-4.295-1.053-8.631,1.576-9.683,5.871c-0.013,0.051-0.025,0.104-0.036,0.154l-15.59,65.906 l-46.3,46.299c-1.124,1.09-1.905,2.484-2.244,4.014l-40.157,187.322l-40.157-187.322c-0.307-1.516-1.046-2.91-2.129-4.014 l-46.417-46.299l-15.354-65.906c-0.873-4.127-4.801-6.867-8.977-6.262L110.901,1092.224z"/> </g> <path style="fill:#3CDEF6;" d="M221.198,1139.292c5.176,0,9.244,4.137,9.244,9.314c0,5.176-4.07,9.244-9.244,9.244 c-5.176,0-9.313-4.068-9.313-9.244C211.885,1143.429,216.021,1139.292,221.198,1139.292z"/> <g> <path style="fill:#5A3392;" d="M36.02,1088.325v15.945h230.445v-15.945C266.465,1088.325,36.02,1088.325,36.02,1088.325z"/> <path style="fill:#5A3392;" d="M279.292,1088.325v15.945h22.173v-15.945H279.292z"/> </g> </g> </g>
</svg>